<mxfile host="app.diagrams.net" modified="2023-04-25T02:52:01.582Z" agent="Mozilla/5.0 (Windows NT 10.0; Win64; x64; rv:112.0) Gecko/20100101 Firefox/112.0" version="21.2.1" etag="_hlbHg4logZEatL7qFzU" type="github">
  <diagram name="Page-1" id="_ViOMv9YvLKTItKcE3aO">
    <mxGraphModel>
      <root>
        <mxCell id="0" />
        <mxCell id="1" parent="0" />
      </root>
    </mxGraphModel>
  </diagram>
</mxfile>
